<?xml version="1.0" encoding="utf-8"?>
<!-- Generator: Adobe Illustrator 13.0.0, SVG Export Plug-In . SVG Version: 6.00 Build 14948)  -->
<!DOCTYPE svg PUBLIC "-//W3C//DTD SVG 1.1//EN" "http://www.w3.org/Graphics/SVG/1.1/DTD/svg11.dtd">
<svg version="1.1" id="layer_1" xmlns="http://www.w3.org/2000/svg" xmlns:xlink="http://www.w3.org/1999/xlink" x="0px" y="0px"
	 width="1312.006px" height="703.035px" viewBox="0 0 1312.006 703.035" enable-background="new 0 0 1312.006 703.035"
	 xml:space="preserve">
<g>
	<g>
		<path d="M481.345,544.936c-24.244,24.739-50.937,45.137-79.88,59.026c-28.896,13.989-60.004,21.189-91.418,22.791
			c-62.953,3.599-123.281-16.48-168.559-51.352c-38.272-28.998-63.826-65.143-79.671-99.913
			c-15.856-34.976-22.274-68.841-23.522-98.53c-1.511-28.72,4.481-53.812,11.388-74.629c7.144-20.83,15.615-37.486,23.457-50.799
			c15.919-26.628,28.874-40.203,35.905-48.584c7.247-8.247,8.991-11.509,7.746-13.505l-7.078-0.591
			c-2.255,0.643-5.127,1.784-8.797,3.641c-10.468,5.577-27.986,17.335-49.238,44.326c-10.504,13.529-21.846,30.92-31.982,53.763
			c-9.817,22.769-19.181,51.53-19.639,86.836c-0.68,33.955,4.531,73.56,21.153,115.306c16.617,41.496,44.929,85.448,89.378,121.748
			c52.45,43.603,125.196,70.674,201.421,68.622c37.931-0.695,77.628-8.522,114.409-25.062c36.866-16.368,70.133-40.66,98.965-68.531
			c39.081-37.975,71.041-81.413,100.626-126.143c-13.964-21.74-26.918-42.91-39.498-63.129
			C554.006,453.951,520.938,504.501,481.345,544.936z M1243.524,176.678c-57.504-75.309-150.924-122.34-245.034-123.849
			c-46.409-1.317-94.248,7.113-137.256,26.5c-43.171,19.088-79.914,48.087-110.422,79.702
			c-34.888,36.566-63.048,75.928-88.331,115.51c22.325-3.866,44.644-5.781,67.457-5.781c7.75,0,15.556,0.22,23.438,0.654
			c15.723-20.696,32.313-40.307,50.273-58.168c26.461-26.195,55.897-47.888,88.327-61.336
			c32.26-13.662,67.671-19.239,103.647-17.533c71.252,2.746,139.139,39.116,180.729,95.656
			c42.31,55.944,57.177,130.124,41.539,196.414c-14.798,66.492-59.534,123.713-116.45,154.433
			c-56.181,31.41-125.755,35.881-182.613,17.972c-56.947-17.701-102.985-60.404-141.011-109.753
			c-0.091-0.117-0.184-0.232-0.274-0.351c-0.161-0.208-0.316-0.42-0.477-0.628c-2.071-2.685-4.117-5.389-6.148-8.104
			c-0.367-0.489-0.744-0.972-1.109-1.462c-0.295-0.396-0.581-0.8-0.876-1.197c-2.009-2.711-4.003-5.433-5.976-8.17
			c-0.727-1.007-1.444-2.021-2.166-3.031c-1.469-2.058-2.929-4.122-4.38-6.192c-0.722-1.03-1.448-2.059-2.165-3.092
			c-1.848-2.662-3.678-5.334-5.498-8.014c-0.799-1.178-1.595-2.357-2.39-3.539c-1.475-2.19-2.94-4.386-4.397-6.587
			c-0.434-0.654-0.876-1.304-1.309-1.959c0-0.003,0.001-0.005,0.001-0.008c0.009-0.063,0.02-0.124,0.028-0.188
			c0.08-0.569,0.166-1.132,0.26-1.684c0.027-0.163,0.061-0.32,0.09-0.482c0.082-0.454,0.164-0.907,0.256-1.349
			c0.028-0.135,0.06-0.264,0.088-0.396c0.102-0.468,0.205-0.931,0.316-1.383c0.023-0.092,0.048-0.18,0.071-0.27
			c0.124-0.492,0.255-0.978,0.393-1.452c0.015-0.05,0.03-0.099,0.045-0.148c0.151-0.513,0.31-1.015,0.477-1.506
			c0.006-0.018,0.012-0.035,0.019-0.053c0.462-1.357,0.979-2.643,1.561-3.841c0.004,0.006,0.008,0.012,0.012,0.019
			c12.846-26.475,54.357-14.324,118.19,41.479c-16.232-61.463,64.731-54.396,146.208,48.388
			c-13.416-59.69,20.005-95.046,145.838,15.556c-40.06-101.334-204.645-210.936-320.533-236.54
			c-21.424-4.733-41.576-7.967-60.695-9.903c-2.193-0.222-4.377-0.433-6.544-0.621c-0.543-0.047-1.079-0.086-1.621-0.131
			c-1.758-0.146-3.507-0.281-5.247-0.405c-0.785-0.056-1.57-0.111-2.354-0.163c-2.11-0.139-4.213-0.268-6.299-0.375
			c-0.519-0.027-1.031-0.046-1.548-0.07c-32.62-1.555-62.246,0.785-90.149,5.97c-0.12,0.022-0.238,0.046-0.358,0.068
			c-1.958,0.365-3.905,0.749-5.847,1.142c-0.556,0.113-1.113,0.227-1.667,0.342c-0.555,0.113-1.112,0.224-1.665,0.341
			c-0.236-0.378-0.472-0.756-0.708-1.136c-2.711-4.339-5.429-8.66-8.161-12.95l0.007-0.004c-0.705-1.088-1.403-2.181-2.104-3.272
			c-2.63-4.108-5.272-8.19-7.929-12.245c9.389,1.215,18.694,2.593,28.119,3.998c-21.527-20.458-43.573-40.393-66.482-58.718
			c-0.016-0.021-0.033-0.042-0.049-0.064c10.234-0.046,20.443,0.172,30.788,0.502c-23.81-18.857-48.312-36.598-73.902-51.622
			l-0.025-0.026c10.131-1.144,20.428-2.026,30.773-2.587c-25.824-16.87-52.75-31.37-80.257-42.342
			c-0.009-0.007-0.019-0.014-0.028-0.021c10.464-3.476,21.164-6.549,32.114-9.297c-28.987-12.725-59.198-21.792-88.648-26.296
			c-0.008-0.004-0.016-0.008-0.024-0.013c9.921-6.391,20.784-12.05,31.234-17.776c-31.732-6.54-63.878-8.331-93.843-5.422
			c-0.013-0.003-0.025-0.006-0.037-0.009c8.715-9.284,18.012-18.251,27.857-26.794c-33.284,1.115-65.007,7.081-93.862,17.206
			c-0.034-0.001-0.066-0.002-0.1-0.004c6.688-11.927,13.917-23.473,21.694-35.035c-31.95,9.32-62.089,22.086-88.466,38.306
			l-0.004,0.001c4.135-13.905,9.073-27.746,14.746-41.489C232.1,16.203,205.013,35.631,183.57,58.776l-0.091,0.04
			c0.115-15.378,1.483-31.085,4.176-46.788c-28.183,24.145-48.882,52.932-60.29,82.743l0.008,0.009
			c-8.382,7.76-15.352,15.773-20.696,23.583c-18.759,26.93-20.196,50.131-9.335,60.233c2.937,2.762,6.515,4.608,10.631,5.729
			c8.04-5.267,22.246-14.01,27.958-14.01c0.576,5.61-1.599,10.748-3.847,14.419c6.728-0.955,14.007-2.541,21.677-4.459
			c24.739-6.402,53.723-15.986,85.797-24.767c5.559-0.95,34.455-11.578,84.471-7.554c24.491,2.322,52.709,8.761,82.27,25.068
			c29.632,16.018,60.545,42.474,90.748,78.891c20.221,24.107,40.071,52.322,60.378,83.501c0.406,0.623,0.811,1.239,1.217,1.864
			c1.104,1.7,2.212,3.419,3.319,5.137c0.699,1.084,1.398,2.166,2.098,3.257c0.988,1.54,1.979,3.09,2.97,4.644
			c0.854,1.338,1.709,2.681,2.566,4.029c0.875,1.379,1.752,2.762,2.63,4.151c1.048,1.657,2.098,3.325,3.15,4.996
			c0.706,1.121,1.411,2.241,2.118,3.369c1.438,2.292,2.88,4.601,4.326,6.919c0.336,0.539,0.671,1.074,1.009,1.615
			c1.864,2.993,3.733,6.003,5.611,9.036c15.687,25.011,31.713,51.488,49.335,78.712c0.346,0.533,0.689,1.066,1.037,1.602
			c0.755,1.163,1.516,2.329,2.277,3.496c0.444,0.68,0.888,1.36,1.333,2.041c0.729,1.113,1.462,2.228,2.196,3.343
			c0.483,0.733,0.967,1.467,1.453,2.201c0.716,1.083,1.435,2.166,2.157,3.251c0.518,0.778,1.038,1.557,1.558,2.335
			c0.708,1.06,1.418,2.12,2.132,3.182c0.542,0.806,1.088,1.612,1.634,2.419c0.706,1.044,1.411,2.088,2.122,3.133
			c0.561,0.824,1.128,1.65,1.692,2.476c0.71,1.037,1.417,2.074,2.133,3.113c0.6,0.871,1.208,1.743,1.812,2.615
			c1.243,1.793,2.495,3.588,3.755,5.385c0.683,0.974,1.363,1.946,2.052,2.921c0.651,0.922,1.312,1.845,1.968,2.767
			c0.684,0.962,1.367,1.923,2.057,2.885c0.66,0.922,1.327,1.844,1.993,2.767c0.7,0.969,1.4,1.938,2.105,2.907
			c0.668,0.918,1.34,1.837,2.013,2.756c0.716,0.977,1.435,1.953,2.156,2.931c0.674,0.912,1.35,1.824,2.028,2.737
			c0.74,0.993,1.484,1.987,2.23,2.981c0.672,0.896,1.344,1.791,2.021,2.687c0.779,1.03,1.564,2.061,2.351,3.091
			c0.658,0.861,1.313,1.724,1.976,2.586c0.864,1.125,1.739,2.249,2.612,3.374c0.596,0.767,1.186,1.534,1.785,2.301
			c1.441,1.844,2.895,3.688,4.36,5.532c0.875,1.093,1.763,2.186,2.647,3.278c22.076,27.259,47.346,54.413,77.893,78.582
			c31.521,25.058,69.343,46.503,111.129,58.846c41.966,12.406,85.634,16.038,129.454,11.488
			c43.873-4.624,87.727-18.288,127.113-40.854c79.131-44.565,139.244-125.014,157.98-216.936
			C1324.766,352.013,1302.261,251.223,1243.524,176.678z M134.954,147.899c-5.395,2.943-8.933,4.259-11.903,1.114
			s-1.87-7.24,0.961-11.364c4.471-6.513,11.272-7.982,15.224-3.915C143.826,138.459,139.423,145.461,134.954,147.899z"/>
	</g>
</g>
</svg>
