<?xml version="1.0" encoding="utf-8"?>
<!-- Generator: Adobe Illustrator 13.0.0, SVG Export Plug-In . SVG Version: 6.00 Build 14948)  -->
<!DOCTYPE svg PUBLIC "-//W3C//DTD SVG 1.1//EN" "http://www.w3.org/Graphics/SVG/1.1/DTD/svg11.dtd">
<svg version="1.1" id="レイヤー_1" xmlns="http://www.w3.org/2000/svg" xmlns:xlink="http://www.w3.org/1999/xlink" x="0px"
	 y="0px" width="800px" height="800px" viewBox="0 0 800 800" enable-background="new 0 0 800 800" xml:space="preserve">
<g>
	<g>
		<path d="M486.888,509.114c28.049-13.029,61.002-18.359,74.623-4.738c13.622,13.622-14.214,41.458-14.214,41.458
			s53.303-24.875,66.332-11.845c13.03,13.029-7.699,33.758-7.699,33.758s4.183-3.111,9.713-6.509
			c13.862-27.301,23.093-57.099,26.784-87.729l0.007-0.066l0.008-0.065c0.306-2.32,0.572-4.641,0.816-6.96
			c-5.453,3.363-11.805,6.394-18.968,8.347C598.23,481.871,505.84,490.162,486.888,509.114z M769.984,574.262
			c-6.348-40.203-23.615-74.104-36.547-94.954c-0.079,0.434-0.146,0.869-0.227,1.303c-8.762,49.203-28.181,96.037-55.878,136.608
			c8.243-3.752,19.097-6.352,26.318,0.87c13.03,13.029,0,39.089,0,39.089s26.06-11.846,45.012-11.846s31.981,60.41,31.981,60.41
			S780.645,641.779,769.984,574.262z"/>
	</g>
</g>
<g>
	<g>
		<path d="M677.232,236.423c-8.157-13.494-17.285-26.433-27.271-38.722l0.005-0.004c-0.043-0.05-0.085-0.102-0.129-0.152
			c-2.54-3.123-5.151-6.191-7.802-9.228c-0.334-0.386-0.67-0.771-1.008-1.154c-0.841-0.954-1.679-1.909-2.529-2.854
			c9.336-0.494,18.506-0.363,28.109-0.134c-23.804-17.818-48.987-32.298-74.871-43.245c-0.03-0.023-0.062-0.046-0.093-0.07
			c9.656-2.884,19.445-5.28,29.56-7.447c-27.391-12.679-55.497-21.611-83.386-26.885c-0.018-0.009-0.035-0.018-0.053-0.027
			c8.922-4.458,18.238-8.767,27.745-12.595c-29.229-7.619-58.58-11.293-86.959-11.357c-0.007-0.002-0.014-0.004-0.021-0.006
			c8.219-6.938,16.968-13.94,25.989-20.292c-30.554-1.257-60.496,1.479-88.477,7.373c-0.023-0.002-0.047-0.006-0.07-0.008
			c6.977-9.235,14.492-18.74,22.418-27.555c-30.73,5.039-59.685,14.253-86.174,25.898c-0.036,0.002-0.072,0.004-0.108,0.007
			c5.188-11.367,10.904-22.991,17.174-34.044c-29.488,11.382-56.405,26.353-80.209,43.475c-0.048,0.012-0.097,0.024-0.145,0.036
			c2.874-13.17,6.331-26.432,10.436-39.438c-27.081,17.394-50.889,37.667-70.833,59.769c-0.049,0.021-0.1,0.042-0.149,0.064
			c0.049-14.479,0.832-28.896,2.251-43.461c-23.538,23.105-42.816,47.883-58.361,73.952c-0.018,0.012-0.036,0.024-0.055,0.036
			c-2.867-15.011-5.178-30.398-6.704-45.818c-18.949,27.559-33.178,56.668-43.421,85.476l0.011,0.012
			c-36.29,34.146-66.063,75.738-86.225,122.473l0.165,0.066c-14.502,35.785-13.755,72.548-4.268,97.347
			c9.63,25.203,27.031,38.607,45.36,38.452c6.368-0.045,12.477-1.479,18.314-3.969c-0.733-10.096-1.837-36.466,6.644-36.466
			c8.222,0,15.682,9.704,18.524,18.463c1.921-1.928,3.799-3.936,5.63-6.008c14.11-15.965,25.553-35.584,34.669-58.054l0-0.001
			c1.372-3.418,2.486-6.876,3.776-10.224c21.011-53.867,63.705-100.745,117.341-128.145
			c53.316-27.812,118.184-35.389,178.178-20.124c60.005,15.12,115.229,53.536,150.962,106.799
			c36.006,53.111,51.753,119.989,43.008,186.292c-7.937,65.876-40.443,129.489-91.953,173.823
			c-51.042,44.656-120.618,68.826-190.749,65.428c-69.904-2.25-138.643-35.155-185.583-90.08
			c-47.522-54.492-73.3-127.521-76.079-201.45c-2.787,74.454,17.627,151.715,64.153,213.337
			c45.666,61.93,119.436,104.5,198.438,111.89c78.277,8.751,161.462-13.246,225.606-63.421
			c64.557-49.446,109.072-124.704,123.55-206.009C736.592,397.672,722.052,308.861,677.232,236.423z M80.998,370.132
			c-5.888,0-10.661-4.95-10.661-11.056c0-6.105,4.772-11.055,10.661-11.055c5.888,0,10.66,4.95,10.66,11.055
			C91.658,365.183,86.885,370.132,80.998,370.132z"/>
	</g>
</g>
<g>
	<polygon fill="none" stroke="#000000" stroke-width="5" points="329.908,615.948 193.292,379.323 466.525,379.323 	"/>
	<polygon fill="none" stroke="#000000" stroke-width="5" points="329.908,300.449 466.525,537.074 193.292,537.074 	"/>
</g>
</svg>
