<?xml version="1.0" encoding="utf-8"?>
<!-- Generator: Adobe Illustrator 13.0.0, SVG Export Plug-In . SVG Version: 6.00 Build 14948)  -->
<!DOCTYPE svg PUBLIC "-//W3C//DTD SVG 1.1//EN" "http://www.w3.org/Graphics/SVG/1.1/DTD/svg11.dtd">
<svg version="1.1" id="レイヤー_1" xmlns="http://www.w3.org/2000/svg" xmlns:xlink="http://www.w3.org/1999/xlink" x="0px"
	 y="0px" width="800px" height="800px" viewBox="0 0 800 800" enable-background="new 0 0 800 800" xml:space="preserve">
<g id="本体パス" display="none">
	<g display="inline">
		<path fill="none" d="M77.049,426.36c0-168.75,140.352-305.548,309.103-305.548c168.749,0,305.548,136.799,305.548,305.548
			c0,168.751-128.454,305.55-297.203,305.55c-168.75,0-284.676-140.515-284.676-309.265"/>
		<g>
			<path d="M45.617,294.377l0.14,0.056c-14.083,34.749-14.285,70.178-6.636,94.289c7.798,24.467,22.559,37.772,38.002,37.639
				c15.836-0.108,29.69-12.333,41.755-28.797c12.272-16.653,22.766-37.61,32.302-61.117l0,0l0,0l0-0.001
				c1.432-3.571,2.639-7.168,4.041-10.637c22.47-56.021,67.248-104.224,123.035-132.129c55.494-28.328,122.52-35.548,184.216-19.312
				c61.718,16.091,118.064,56.037,154.244,110.867c36.477,54.673,51.976,123.209,42.596,190.556
				c-8.562,67.002-42.094,131.401-94.649,176.007c-52.095,44.946-122.687,68.861-193.396,64.971
				c-70.554-2.729-139.596-36.407-186.382-91.857c-47.388-55.029-72.716-128.341-75.065-202.265
				c-2.354,74.459,18.515,151.433,65.17,212.51c45.816,61.396,119.266,103.188,197.605,110.103
				c77.687,8.261,159.831-13.976,222.917-63.835c63.502-49.15,106.996-123.587,120.869-203.739
				c14.404-79.689-0.338-166.804-44.632-237.676c-43.45-71.127-114.245-126.295-196.229-150.174
				c-81.723-24.207-172.803-17.441-251.203,19.908C145.877,146.442,80.535,212.511,45.617,294.377z"/>
		</g>
	</g>
</g>
<g>
	<g>
		<path d="M486.888,509.114c28.049-13.029,61.002-18.359,74.623-4.738c13.622,13.622-14.214,41.458-14.214,41.458
			s53.303-24.875,66.332-11.845c13.03,13.029-7.699,33.758-7.699,33.758s4.183-3.111,9.713-6.509
			c13.862-27.301,23.093-57.099,26.784-87.729l0.007-0.066l0.008-0.065c0.306-2.32,0.572-4.641,0.816-6.96
			c-5.453,3.363-11.805,6.394-18.968,8.347C598.23,481.871,505.84,490.162,486.888,509.114z M769.984,574.262
			c-6.348-40.203-23.615-74.104-36.547-94.954c-0.079,0.434-0.146,0.869-0.227,1.303c-8.762,49.203-28.181,96.037-55.878,136.608
			c8.243-3.752,19.097-6.352,26.318,0.87c13.03,13.029,0,39.089,0,39.089s26.06-11.846,45.012-11.846s31.981,60.41,31.981,60.41
			S780.645,641.779,769.984,574.262z"/>
	</g>
</g>
<g>
	<g>
		<path d="M677.232,236.423c-43.95-72.701-115.939-129.389-199.698-154.189c-83.477-25.129-176.769-18.642-257.351,19.32
			c-80.596,37.3-148.006,104.807-184.304,188.942l0.165,0.066c-14.502,35.785-13.755,72.548-4.268,97.347
			c9.63,25.203,27.031,38.607,45.36,38.452c6.368-0.045,12.477-1.479,18.314-3.969c-0.733-10.096-1.837-36.466,6.644-36.466
			c8.222,0,15.682,9.704,18.524,18.463c1.921-1.928,3.799-3.936,5.63-6.008c14.11-15.965,25.553-35.584,34.669-58.054l0-0.001
			c1.372-3.418,2.486-6.876,3.776-10.224c21.011-53.867,63.705-100.745,117.341-128.145
			c53.316-27.812,118.184-35.389,178.178-20.124c60.005,15.12,115.229,53.536,150.962,106.799
			c36.006,53.111,51.753,119.989,43.008,186.292c-7.937,65.876-40.443,129.489-91.953,173.823
			c-51.042,44.656-120.618,68.826-190.749,65.428c-69.904-2.25-138.643-35.155-185.583-90.08
			c-47.522-54.492-73.3-127.521-76.079-201.45c-2.787,74.454,17.627,151.715,64.153,213.337
			c45.666,61.93,119.436,104.5,198.438,111.89c78.277,8.751,161.462-13.246,225.606-63.421
			c64.557-49.446,109.072-124.704,123.55-206.009C736.592,397.672,722.052,308.861,677.232,236.423z M80.998,370.132
			c-5.888,0-10.661-4.95-10.661-11.056c0-6.105,4.772-11.055,10.661-11.055c5.888,0,10.66,4.95,10.66,11.055
			C91.658,365.183,86.885,370.132,80.998,370.132z"/>
	</g>
</g>
<g id="トゲ">
	<g>
		<path fill="none" d="M649.967,197.697c-43.813-53.92-104.221-95.267-172.433-115.464c-83.477-25.129-176.769-18.642-257.351,19.32
			c-35.827,16.581-69.049,39.131-98.09,66.458"/>
		<g>
			<g>
				<path d="M122.093,168.011c15.55-14.594,32.337-27.869,50.133-39.616c-2.871-15.024-5.185-30.426-6.712-45.86
					C146.565,110.094,132.336,139.204,122.093,168.011z"/>
				<path d="M172.226,128.396c17.789-11.76,36.615-21.933,56.155-30.469c0.046-14.512,0.829-28.962,2.252-43.561
					C207.073,77.494,187.779,102.298,172.226,128.396z"/>
				<path d="M299.364,37.994c-27.148,17.437-51.008,37.767-70.983,59.932c19.513-8.593,39.802-15.417,60.529-20.415
					C291.789,64.315,295.251,51.026,299.364,37.994z"/>
				<path d="M369.283,33.92c-29.555,11.408-56.529,26.42-80.373,43.591c20.728-4.999,41.894-8.175,63.175-9.497
					C357.281,56.632,363.004,44.989,369.283,33.92z"/>
				<path d="M438.392,42.059c-30.781,5.047-59.781,14.283-86.306,25.955c21.281-1.322,42.681-0.79,63.867,1.626
					C422.936,60.397,430.458,50.883,438.392,42.059z"/>
				<path d="M504.521,62.25c-30.587-1.258-60.562,1.484-88.567,7.391c21.188,2.411,42.16,6.724,62.571,12.907
					C486.745,75.607,495.496,68.604,504.521,62.25z"/>
				<path d="M565.511,93.906c-29.238-7.622-58.599-11.295-86.986-11.358c20.412,6.173,40.248,14.227,59.218,23.965
					C546.671,102.051,555.996,97.738,565.511,93.906z"/>
				<path d="M621.204,133.413c-27.416-12.69-55.549-21.628-83.462-26.9c18.955,9.775,36.951,21.375,53.86,34.359
					C601.272,137.982,611.075,135.583,621.204,133.413z"/>
			</g>
			<path d="M666.608,184.175c-23.845-17.849-49.075-32.35-75.006-43.303c16.944,12.955,32.537,27.634,46.841,43.439
				C647.799,183.814,656.985,183.945,666.608,184.175z"/>
		</g>
	</g>
</g>
<g id="ブラシ用" display="none">
	<polygon display="inline" points="972.494,-97.991 972.494,36.009 1057.381,73.009 	"/>
	<polygon display="inline" points="972.494,36.009 972.494,170.009 1051.381,207.009 	"/>
	<polygon display="inline" points="1045.381,341.01 972.494,170.009 972.494,304.01 	"/>
	<polygon display="inline" points="1039.381,475.01 972.494,304.01 972.494,438.01 	"/>
	<polygon display="inline" points="1033.381,609.01 972.494,438.01 972.494,572.01 	"/>
	<polygon display="inline" points="1027.381,743.01 972.494,572.01 972.494,706.01 	"/>
	<polygon display="inline" points="1021.381,877.01 972.494,706.01 972.494,840.01 	"/>
	<polygon display="inline" points="1021.381,1011.01 972.494,840.01 972.494,974.01 	"/>
	<polygon display="inline" points="1015.381,1145.01 972.494,974.01 972.494,1108.01 	"/>
	<rect x="887.607" y="-97.991" display="inline" fill="none" width="84.887" height="1243"/>
</g>
<g>
	<polygon fill="none" stroke="#000000" stroke-width="5" points="329.908,615.948 193.292,379.323 466.525,379.323 	"/>
	<polygon fill="none" stroke="#000000" stroke-width="5" points="329.908,300.449 466.525,537.074 193.292,537.074 	"/>
</g>
</svg>
